<?xml version="1.0" encoding="utf-8"?>
<!-- Generator: Adobe Illustrator 18.0.0, SVG Export Plug-In . SVG Version: 6.00 Build 0)  -->
<!DOCTYPE svg PUBLIC "-//W3C//DTD SVG 1.1//EN" "http://www.w3.org/Graphics/SVG/1.1/DTD/svg11.dtd">
<svg version="1.1" id="图层_1" xmlns="http://www.w3.org/2000/svg" xmlns:xlink="http://www.w3.org/1999/xlink" x="0px" y="0px"
	 viewBox="0 0 480 480" enable-background="new 0 0 480 480" xml:space="preserve">
<g>
	<path fill="#FFFFFF" d="M400.4,220.4l14.2-14.2c2.2-2.2,1.1-4.9-0.5-6.5c-1.6-1.6-2.7-2.2-3.8-2.2c-1.1,0-2.2,0.5-2.7,1.1
		l-14.2,14.2l-14.2-14.2c-1.6-1.6-3.8-1.6-6.5,1.1c-3.3,3.3-2.2,5.5-1.1,6.5l14.2,14.2l-14.2,14.2c-0.5,0.5-1.1,1.1-1.1,2.7
		c0,1.1,0.5,2.7,2.2,4.4c1.1,1.1,2.7,2.2,3.8,2.2c1.6,0,2.7-1.1,2.7-1.6l14.2-14.2l14.2,14.2c0.5,0.5,1.1,1.1,2.7,1.1
		c1.1,0,2.7-0.5,3.8-2.2c3.3-3.3,1.6-5.5,1.1-6.5L400.4,220.4z"/>
	<path fill="#FFFFFF" d="M272.2,196.4c-24,0-43.6,19.6-43.6,43.6s19.6,43.6,43.6,43.6s43.6-19.6,43.6-43.6S296.2,196.4,272.2,196.4z
		 M304.4,240c0,17.5-14.2,31.6-31.6,31.6s-31.6-14.2-31.6-31.6s14.2-31.6,31.6-31.6C289.6,208.4,304.4,222.5,304.4,240z"/>
	<path fill="#FFFFFF" d="M108.5,222c-7.6-1.1-15.3,0.5-21.3,4.9v-18.5h36.5c3.3,0,3.8-2.2,3.8-5.5c0-3.8-1.1-5.5-3.8-5.5h-42
		c-2.7,0-4.9,2.2-4.9,5.5v36.5c0,3.3,3.3,3.8,4.4,4.4c2.7,0.5,3.8,0,5.5-1.1v-0.5c3.8-5.5,12-10.9,19.6-9.8
		c9.3,1.1,16.9,8.7,17.5,17.5c0.5,6-1.1,11.5-4.9,15.8c-3.8,4.4-9.3,6.5-14.7,6.5c-8.2,0-15.8-5.5-18.5-13.1c0-0.5-1.1-2.2-3.3-2.2
		c-1.1,0-2.2,0-3.3,0.5c-3.3,1.1-4.9,3.3-3.8,5.5c4.4,12,16.4,20.2,28.9,20.2c8.7,0,17.5-3.8,22.9-10.4c6-6.5,8.7-15.3,7.6-24
		C133.6,235.1,122.7,223.6,108.5,222z"/>
	<path fill="#FFFFFF" d="M343.1,196.9c-12,1.1-21.3,11.5-21.3,24v37.6c0,3.8,3.8,3.8,5.5,3.8s5.5,0,5.5-3.8v-37.6
		c0-6.5,4.9-12.5,10.9-13.1c3.8-0.5,7.1,0.5,9.8,3.3c2.7,2.2,4.4,6,4.4,9.3c0,1.1-0.5,4.4-2.7,7.6c-1.6,2.2-4.9,4.9-10.9,4.9
		c-2.2,0-4.4,0.5-4.9,5.5c0,2.2-0.5,4.9,3.3,5.5c1.1,0,1.6,0,2.7,0c3.3,0,7.1-1.1,10.4-2.7c7.6-3.8,12.5-10.9,13.1-19.1
		c0.5-7.1-2.2-13.6-6.5-18.5C356.7,198.5,350.2,196.4,343.1,196.9z"/>
	<path fill="#FFFFFF" d="M181.1,196.4c-24,0-43.6,19.6-43.6,43.6s19.6,43.6,43.6,43.6s43.6-19.6,43.6-43.6S205.1,196.4,181.1,196.4z
		 M212.7,240c0,17.5-14.2,31.6-31.6,31.6s-31.6-14.2-31.6-31.6s14.2-31.6,31.6-31.6S212.7,222.5,212.7,240z"/>
</g>
</svg>
