<?xml version="1.0" encoding="utf-8"?>
<!-- Generator: Adobe Illustrator 19.0.0, SVG Export Plug-In . SVG Version: 6.00 Build 0)  -->
<svg version="1.0" id="图层_1" xmlns="http://www.w3.org/2000/svg" xmlns:xlink="http://www.w3.org/1999/xlink" x="0px" y="0px"
	 viewBox="0 0 31 33" style="enable-background:new 0 0 31 33;" xml:space="preserve">
<style type="text/css">
	.st0{fill:#FFFFFF;}
</style>
<path id="XMLID_78_" class="st0" d="M30.7,31l-5-5.2c2.9-2.8,4.5-6.7,4.5-10.7C30.2,6.8,23.4,0,15.1,0S0,6.8,0,15.1
	s6.8,15.1,15.1,15.1c1.6,0,3.2-0.3,4.7-0.7c0.6-0.2,0.9-0.9,0.7-1.5c-0.2-0.6-0.9-0.9-1.5-0.7c-1.3,0.4-2.6,0.6-4,0.6
	c-7,0-12.8-5.7-12.8-12.8S8.1,2.3,15.1,2.3c7,0,12.8,5.7,12.8,12.8c0,3.8-1.7,7.4-4.6,9.8c0,0,0,0,0,0c0,0,0,0-0.1,0
	c-0.1,0.1-0.1,0.2-0.2,0.3c0,0,0,0,0,0c-0.1,0.1-0.1,0.3-0.1,0.4c0,0,0,0,0,0c0,0.1,0,0.3,0,0.4c0,0,0,0,0,0c0,0.1,0.1,0.2,0.2,0.3
	c0,0,0,0,0,0.1c0,0,0,0,0,0c0,0,0,0,0,0l5.8,6.1c0.2,0.2,0.5,0.4,0.8,0.4c0.3,0,0.6-0.1,0.8-0.3C31.1,32.2,31.1,31.5,30.7,31z"/>
</svg>
