<?xml version="1.0" encoding="utf-8"?>
<!-- Generator: Adobe Illustrator 19.0.0, SVG Export Plug-In . SVG Version: 6.00 Build 0)  -->
<svg version="1.0" id="图层_1" xmlns="http://www.w3.org/2000/svg" xmlns:xlink="http://www.w3.org/1999/xlink" x="0px" y="0px"
	 viewBox="0 0 35 33" style="enable-background:new 0 0 35 33;" xml:space="preserve">
<style type="text/css">
	.st0{fill:#FFFFFF;}
</style>
<g id="XMLID_27_">
	<path id="XMLID_53_" class="st0" d="M31.1,20.7c-0.5,0-1,0.4-1,1v6c0,1.9-1.5,3.4-3.4,3.4H5.7c-1.9,0-3.4-1.5-3.4-3.4V7.6
		c0-1.9,1.5-3.4,3.4-3.4H16c0.5,0,1-0.4,1-1s-0.4-1-1-1H5.7c-2.9,0-5.3,2.4-5.3,5.3v20.1c0,2.9,2.4,5.3,5.3,5.3h21.1
		c2.9,0,5.3-2.4,5.3-5.3v-6C32.1,21.2,31.7,20.7,31.1,20.7z"/>
	<path id="XMLID_63_" class="st0" d="M33.8,6.1l-6.7-5.9c-0.4-0.3-1-0.3-1.4,0.1c-0.3,0.4-0.3,1,0.1,1.4l5.6,4.9
		C15.5,7.3,10.8,22.3,10.7,22.4c-0.2,0.5,0.1,1,0.6,1.2c0.1,0,0.2,0,0.3,0c0.4,0,0.8-0.3,0.9-0.7c0-0.1,4.6-14.5,19.9-14.6L27.1,15
		c-0.3,0.4-0.3,1,0.1,1.4c0.2,0.1,0.4,0.2,0.6,0.2c0.3,0,0.6-0.1,0.7-0.4l5.5-6.7C34.9,8.5,34.8,7,33.8,6.1z"/>
</g>
</svg>
