<?xml version="1.0" encoding="utf-8"?>
<!-- Generator: Adobe Illustrator 19.0.0, SVG Export Plug-In . SVG Version: 6.00 Build 0)  -->
<svg version="1.1" id="图层_1" xmlns="http://www.w3.org/2000/svg" xmlns:xlink="http://www.w3.org/1999/xlink" x="0px" y="0px"
	 viewBox="0 0 29 26" style="enable-background:new 0 0 29 26;" xml:space="preserve">
<style type="text/css">
	.st0{fill:#FFFFFF;}
</style>
<g id="XMLID_1_">
	<path id="XMLID_3_" class="st0" d="M14.5,8.5c-1.7,0-3.1,1.3-3.1,3c0,1.6,1.4,2.9,3.1,3c1.7,0,3.1-1.4,3.1-3
		C17.6,9.8,16.2,8.5,14.5,8.5z"/>
	<path id="XMLID_2_" class="st0" d="M17.1,3.2l0.3-1.5C17.5,0.9,17,0.2,16.1,0c-0.7-0.1-1.4,0.3-1.6,1c0,0.1,0,0.1-0.1,0.2l-0.3,1.9
		C4.8,3.7,0.5,11,0.5,11s2.9,6.7,10.8,8l-1,5.3c-0.1,0.8,0.4,1.5,1.2,1.6c0.8,0.1,1.5-0.4,1.7-1.2l1-5.6h0.3c8.9-0.3,14-7.9,14-7.9
		S25.4,4.1,17.1,3.2z M14.5,16.6h-0.8C7,16.4,4.8,11,4.8,11s3.1-5,9.7-5.3h0.3c6.8-0.1,9.3,5.5,9.3,5.5S20.6,16.4,14.5,16.6z"/>
</g>
</svg>
